<svg xmlns="http://www.w3.org/2000/svg" width="24.004" height="26.504" viewBox="0 0 24.004 26.504">
  <path id="Icon_material-perm-contact-calendar" data-name="Icon material-perm-contact-calendar" d="M24.5,4h-1.25V1.5h-2.5V4h-10V1.5h-2.5V4H7A2.5,2.5,0,0,0,4.5,6.5V24A2.5,2.5,0,0,0,7,26.5H24.5A2.508,2.508,0,0,0,27,24V6.5A2.508,2.508,0,0,0,24.5,4ZM15.752,7.751A3.751,3.751,0,1,1,12,11.5,3.746,3.746,0,0,1,15.752,7.751Zm7.5,15h-15V21.5c0-2.5,5-3.876,7.5-3.876s7.5,1.375,7.5,3.876Z" transform="translate(-3.75 -0.75)" fill="none" stroke="#e2b62d" stroke-width="1.5"/>
</svg>
