<svg xmlns="http://www.w3.org/2000/svg" width="21.331" height="20.43" viewBox="0 0 21.331 20.43">
  <g id="Icon_feather-shopping-cart" data-name="Icon feather-shopping-cart" transform="translate(-0.75 -0.75)">
    <path id="Path_263" data-name="Path 263" d="M13.8,30.9a.9.9,0,1,1-.9-.9A.9.9,0,0,1,13.8,30.9Z" transform="translate(-4.19 -11.373)" fill="none" stroke="#f9f9f9" stroke-linecap="round" stroke-linejoin="round" stroke-width="1.5"/>
    <path id="Path_264" data-name="Path 264" d="M30.3,30.9a.9.9,0,1,1-.9-.9A.9.9,0,0,1,30.3,30.9Z" transform="translate(-10.775 -11.373)" fill="none" stroke="#f9f9f9" stroke-linecap="round" stroke-linejoin="round" stroke-width="1.5"/>
    <path id="Path_265" data-name="Path 265" d="M1.5,1.5H5.106L7.521,13.57a1.8,1.8,0,0,0,1.8,1.451h8.762a1.8,1.8,0,0,0,1.8-1.451l1.442-7.563H6.007" fill="none" stroke="#f9f9f9" stroke-linecap="round" stroke-linejoin="round" stroke-width="1.5"/>
  </g>
</svg>
