<svg xmlns="http://www.w3.org/2000/svg" width="18.149" height="22.896" viewBox="0 0 18.149 22.896">
  <g id="Icon_feather-share-2" data-name="Icon feather-share-2" transform="translate(-3.5 -2)">
    <path id="Path_311" data-name="Path 311" d="M27.883,5.691A2.691,2.691,0,1,1,25.191,3,2.691,2.691,0,0,1,27.883,5.691Z" transform="translate(-7.234)" fill="none" stroke="#f9f9f9" stroke-linecap="round" stroke-linejoin="round" stroke-width="2"/>
    <path id="Path_312" data-name="Path 312" d="M9.883,16.191A2.691,2.691,0,1,1,7.191,13.5,2.691,2.691,0,0,1,9.883,16.191Z" transform="translate(0 -2.743)" fill="none" stroke="#f9f9f9" stroke-linecap="round" stroke-linejoin="round" stroke-width="2"/>
    <path id="Path_313" data-name="Path 313" d="M27.883,26.691A2.691,2.691,0,1,1,25.191,24,2.691,2.691,0,0,1,27.883,26.691Z" transform="translate(-7.234 -5.487)" fill="none" stroke="#f9f9f9" stroke-linecap="round" stroke-linejoin="round" stroke-width="2"/>
    <path id="Path_314" data-name="Path 314" d="M12.885,20.265l6.128,3.571" transform="translate(-3.37 -4.817)" fill="none" stroke="#f9f9f9" stroke-linecap="round" stroke-linejoin="round" stroke-width="2"/>
    <path id="Path_315" data-name="Path 315" d="M19,9.765l-6.119,3.571" transform="translate(-3.37 -1.888)" fill="none" stroke="#f9f9f9" stroke-linecap="round" stroke-linejoin="round" stroke-width="2"/>
  </g>
</svg>
