<svg xmlns="http://www.w3.org/2000/svg" width="29" height="25" viewBox="0 0 29 25">
  <g id="Group_6164" data-name="Group 6164" transform="translate(-990 -54)">
    <rect id="Rectangle_1874" data-name="Rectangle 1874" width="29" height="25" transform="translate(990 54)" fill="#5a5e68" opacity="0"/>
    <path id="Icon_awesome-home" data-name="Icon awesome-home" d="M13.7,7.93,4.689,15.348v8.006a.782.782,0,0,0,.782.782l5.474-.014a.782.782,0,0,0,.778-.782V18.664a.782.782,0,0,1,.782-.782H15.63a.782.782,0,0,1,.782.782v4.672a.782.782,0,0,0,.782.784l5.472.015a.782.782,0,0,0,.782-.782V15.343l-9-7.412A.6.6,0,0,0,13.7,7.93Zm14.226,5.042L23.838,9.606V2.84a.586.586,0,0,0-.586-.586H20.516a.586.586,0,0,0-.586.586V6.387l-4.373-3.6a2.345,2.345,0,0,0-2.98,0L.212,12.972a.586.586,0,0,0-.078.826l1.246,1.514a.586.586,0,0,0,.826.08L13.7,5.927a.6.6,0,0,1,.747,0l11.491,9.464a.586.586,0,0,0,.826-.078L28,13.8a.586.586,0,0,0-.083-.827Z" transform="translate(990.542 53.329)" fill="#f9f9f9"/>
  </g>
</svg>
