<svg xmlns="http://www.w3.org/2000/svg" width="236.774" height="47.093" viewBox="0 0 236.774 47.093">
  <g id="Group_482" data-name="Group 482" transform="translate(0 0.5)">
    <g id="Group_480" data-name="Group 480" transform="translate(140.351 0)">
      <g id="Group_478" data-name="Group 478" transform="translate(0 0)">
        <path id="Path_333" data-name="Path 333" d="M1143.659,483.782h-85.044a5.446,5.446,0,0,1-5.44-5.44V443.129a5.446,5.446,0,0,1,5.44-5.44h85.044a5.446,5.446,0,0,1,5.44,5.44v35.213A5.446,5.446,0,0,1,1143.659,483.782Zm-85.044-44.515a3.866,3.866,0,0,0-3.862,3.862v35.213a3.867,3.867,0,0,0,3.862,3.862h85.044a3.867,3.867,0,0,0,3.862-3.862V443.129a3.866,3.866,0,0,0-3.862-3.862Z" transform="translate(-1053.175 -437.689)" fill="#f8c629" stroke="#f8c629" stroke-width="1"/>
      </g>
      <g id="Group_479" data-name="Group 479" transform="translate(13.594 11.124)">
        <path id="Path_334" data-name="Path 334" d="M1124.845,497.464h-9.792v-9.615h-4.916v23.61h4.916v-9.95h9.792v9.95h4.916v-23.61h-4.916Z" transform="translate(-1110.137 -487.849)" fill="#f8c629"/>
        <path id="Path_335" data-name="Path 335" d="M1238.01,502.435c0,3.082-1.65,4.779-4.645,4.779-2.974,0-4.611-1.7-4.611-4.779V487.849h-4.916V502.4c0,5.645,3.713,9.292,9.46,9.292,4.457,0,9.661-2.434,9.661-9.292V487.849h-4.949Z" transform="translate(-1198.211 -487.849)" fill="#f8c629"/>
        <path id="Path_336" data-name="Path 336" d="M1348.955,499.326a5.459,5.459,0,0,0,3.687-5.334c0-3.732-3.029-6.143-7.718-6.143h-9.761v23.61h10.2c4.749,0,7.818-2.529,7.818-6.445A5.779,5.779,0,0,0,1348.955,499.326Zm-8.876,2.015h4.511c2.224,0,3.606,1.189,3.606,3.1,0,1.887-1.278,2.97-3.505,2.97h-4.611Zm4.175-3.844h-4.175V491.86h4.175c2.143,0,3.372,1.033,3.372,2.836S1346.428,497.5,1344.254,497.5Z" transform="translate(-1284.442 -487.849)" fill="#f8c629"/>
      </g>
    </g>
    <g id="Group_481" data-name="Group 481" transform="translate(0 9.443)">
      <path id="Path_337" data-name="Path 337" d="M443.377,505.063l-7.363-17.214H430.5v23.61h4.916V496.7l6.11,14.756h3.7l6.077-14.753v14.753h4.916v-23.61h-5.48Z" transform="translate(-430.5 -485.986)" fill="#fff"/>
      <path id="Path_338" data-name="Path 338" d="M716.668,499.326a5.459,5.459,0,0,0,3.687-5.334c0-3.732-3.029-6.143-7.718-6.143h-9.761v23.61h10.2c4.749,0,7.818-2.529,7.818-6.445A5.779,5.779,0,0,0,716.668,499.326Zm-8.876,2.015H712.3c2.224,0,3.606,1.189,3.606,3.1,0,1.887-1.278,2.97-3.506,2.97h-4.611Zm4.176-3.844h-4.176V491.86h4.176c2.143,0,3.372,1.033,3.372,2.836S714.142,497.5,711.967,497.5Z" transform="translate(-641.483 -485.986)" fill="#fff"/>
      <rect id="Rectangle_385" data-name="Rectangle 385" width="4.916" height="23.61" transform="translate(83.772 1.863)" fill="#fff"/>
      <path id="Path_339" data-name="Path 339" d="M852.112,487.849H847.2v23.61h14.2l-.059-4.916h-9.283Z" transform="translate(-753.274 -485.986)" fill="#fff"/>
      <path id="Path_340" data-name="Path 340" d="M944.238,492.616V487.7h-14.2v23.644h14.2v-4.916h-9.283V501.98h9.283v-4.916h-9.283v-4.448Z" transform="translate(-817.443 -485.871)" fill="#fff"/>
      <path id="Path_341" data-name="Path 341" d="M598.908,538.384l-1.279-4.247-1.278-4.247-3.924,2.069-3.923,2.069,2.721,1.139a7.75,7.75,0,0,1-13.983,1.1l-4.7,2.468a13.473,13.473,0,0,0,23.659-1.486Z" transform="translate(-540.527 -518.55)" fill="#fff"/>
      <path id="Path_342" data-name="Path 342" d="M572.79,479.582a13,13,0,0,0-12.225,7.83l-2.584-1.082,1.278,4.247,1.278,4.247,3.924-2.069,3.924-2.069-2.841-1.19a7.75,7.75,0,0,1,13.976-1.13l4.684-2.487A13.024,13.024,0,0,0,572.79,479.582Z" transform="translate(-529.247 -479.582)" fill="#f8c629"/>
    </g>
  </g>
</svg>
