<svg xmlns="http://www.w3.org/2000/svg" width="24.602" height="30" viewBox="0 0 24.602 30">
  <path id="Icon_material-phonelink-setup" data-name="Icon material-phonelink-setup" d="M16.983,17.182V15.818l-1.5-1.091a.5.5,0,0,1-.136-.409L16.711,12c.136-.136.273-.273.409-.136l1.773.545a5.527,5.527,0,0,1,1.227-.682l.273-1.773c0-.136.136-.273.409-.273h2.727c.136,0,.273.136.409.273l.273,1.773a5.527,5.527,0,0,1,1.227.682l1.773-.682a.5.5,0,0,1,.409.136l1.364,2.318c.136.136,0,.273-.136.409l-1.5,1.091v1.364l1.5,1.091a1.031,1.031,0,0,1,.136.545L27.62,21c-.136.136-.273.273-.409.136L25.3,20.591a5.527,5.527,0,0,1-1.227.682L23.8,23.045c.136.136-.136.273-.273.273H20.8c-.136,0-.273-.136-.409-.273l-.273-1.773a5.527,5.527,0,0,1-1.227-.682l-1.773.682a.5.5,0,0,1-.409-.136l-1.364-2.318c-.136-.136,0-.273.136-.409l1.5-1.227Zm5.182,2.045A2.727,2.727,0,1,0,19.438,16.5,2.735,2.735,0,0,0,22.165,19.227ZM7.165,1.5H20.8a2.735,2.735,0,0,1,2.727,2.727V8.318H20.8V5.591H7.165V27.409H20.8V24.682h2.727v4.091A2.735,2.735,0,0,1,20.8,31.5H7.165a2.735,2.735,0,0,1-2.727-2.727V4.227A2.735,2.735,0,0,1,7.165,1.5Z" transform="translate(-4.438 -1.5)" fill="#3cac5e"/>
</svg>
