<svg xmlns="http://www.w3.org/2000/svg" width="25" height="25" viewBox="0 0 25 25">
  <path id="Icon_awesome-user-circle" data-name="Icon awesome-user-circle" d="M12.5.563A12.5,12.5,0,1,0,25,13.063,12.5,12.5,0,0,0,12.5.563Zm0,4.839A4.435,4.435,0,1,1,8.065,9.837,4.436,4.436,0,0,1,12.5,5.4Zm0,17.339A9.659,9.659,0,0,1,5.116,19.3a5.62,5.62,0,0,1,4.965-3.014,1.233,1.233,0,0,1,.358.055,6.673,6.673,0,0,0,2.061.348,6.648,6.648,0,0,0,2.061-.348,1.233,1.233,0,0,1,.358-.055A5.62,5.62,0,0,1,19.884,19.3,9.659,9.659,0,0,1,12.5,22.74Z" transform="translate(0 -0.563)" fill="#f9f9f9"/>
</svg>
