<svg xmlns="http://www.w3.org/2000/svg" width="32.999" height="32.999" viewBox="0 0 32.999 32.999">
  <g id="Group_6160" data-name="Group 6160" transform="translate(-814.741 -2316.673)">
    <path id="Union_1" data-name="Union 1" d="M7.626,28.852l-5.641,1.42L3.6,25.432a15.478,15.478,0,1,1,4.025,3.421Z" transform="translate(815.741 2317.673)" fill="none" stroke="#3cac5e" stroke-width="2"/>
    <path id="Icon_awesome-phone" data-name="Icon awesome-phone" d="M13.1.654,10.341.016a.641.641,0,0,0-.73.369L8.336,3.36a.636.636,0,0,0,.183.744L10.129,5.42a9.842,9.842,0,0,1-4.706,4.706L4.106,8.517a.637.637,0,0,0-.744-.183L.388,9.608a.645.645,0,0,0-.372.733L.654,13.1a.637.637,0,0,0,.621.494A12.321,12.321,0,0,0,13.6,1.275.637.637,0,0,0,13.1.654Z" transform="translate(838.039 2326.374) rotate(90)" fill="#3cac5e"/>
  </g>
</svg>
